<svg xmlns="http://www.w3.org/2000/svg" xmlns:xlink="http://www.w3.org/1999/xlink" version="1.1" width="1000" height="1000" viewBox="0 0 1000 1000" xml:space="preserve">
<desc>Created with Fabric.js 3.5.0</desc>
<defs>
</defs>
<rect x="0" y="0" width="100%" height="100%" fill="#ffffff"/>
<g transform="matrix(2.3258 0 0 2.3258 499.9905 499.9905)" id="Layer_1">
<path style="stroke: none; stroke-width: 1; stroke-dasharray: none; stroke-linecap: butt; stroke-dashoffset: 0; stroke-linejoin: miter; stroke-miterlimit: 4; is-custom-font: none; font-file-url: none; fill: rgb(0,0,0); fill-opacity: 0; fill-rule: nonzero; opacity: 1;" transform=" translate(-256.9375, -257.0486)" d="M 286 513 C 190.689804 513 95.879608 513 1.034703 513 C 1.034703 342.398102 1.034703 171.796219 1.034703 1.097158 C 171.560211 1.097158 342.120514 1.097158 512.840393 1.097158 C 512.840393 171.66655 512.840393 342.333252 512.840393 513 C 437.46286 513 361.981415 513 286 513 M 151.003448 84.990707 C 151.000259 78.167374 151.146011 71.339973 150.960236 64.521614 C 150.653488 53.262569 141.730148 43.982388 130.541534 43.027645 C 120.286217 42.152538 109.569382 49.479122 108.031532 60.080086 C 106.659531 69.537743 107.259109 79.281403 106.193665 88.990257 C 90.496544 93.055458 77.486519 101.385849 66.294357 113.088982 C 51.144135 128.930862 43.311802 147.973495 43.173676 169.452499 C 42.712887 241.105804 42.979942 312.763977 43.043118 384.420197 C 43.047295 389.160797 43.205826 393.99231 44.100216 398.62561 C 48.22765 420.007446 57.843163 438.068756 75.25473 451.965668 C 91.020073 464.548706 108.887062 470.812988 128.621597 470.878571 C 214.274902 471.163147 299.929688 471.0159 385.583923 470.956909 C 390.003815 470.953857 394.508514 470.748749 398.828491 469.899109 C 420.212982 465.693237 438.254639 455.987 452.126282 438.575958 C 464.017822 423.650238 470.732727 406.694183 470.780396 388.076874 C 470.97467 312.171661 470.613068 236.260757 469.64386 160.362335 C 469.524017 150.977951 465.376434 141.294312 461.574158 132.399582 C 457.17627 122.111526 449.359497 113.90976 440.97345 106.513077 C 431.142029 97.841545 419.967865 91.616127 407.0047 87.972336 C 407.001068 80.150436 407.155731 72.324493 406.956024 64.507599 C 406.669342 53.286583 397.676941 43.967529 386.527344 43.026936 C 376.266174 42.161285 365.672302 49.490505 364.009888 60.093845 C 362.68454 68.547234 363.259583 77.298576 362.057434 85.991989 C 334.374969 85.967163 306.692535 85.942337 279.00351 84.990707 C 279.000305 78.166473 279.146454 71.338165 278.960205 64.518936 C 278.652863 53.266037 269.716003 43.976185 258.534607 43.02729 C 248.275223 42.156639 237.672592 49.48877 236.010651 60.090618 C 234.685333 68.545151 235.259888 77.297508 234.057526 85.991982 C 206.375031 85.967155 178.692535 85.942337 151.003448 84.990707 z" stroke-linecap="round"/>
</g>
<g transform="matrix(2.3258 0 0 2.3258 499.8348 549.8449)" id="Layer_1">
<path style="stroke: none; stroke-width: 1; stroke-dasharray: none; stroke-linecap: butt; stroke-dashoffset: 0; stroke-linejoin: miter; stroke-miterlimit: 4; is-custom-font: none; font-file-url: none; fill: rgb(201,218,234); fill-rule: nonzero; opacity: 1;" transform=" translate(-256.8699, -278.4827)" d="M 407.012634 88.896492 C 419.967865 91.616127 431.142029 97.841545 440.97345 106.513077 C 449.359497 113.90976 457.17627 122.111526 461.574158 132.399582 C 465.376434 141.294312 469.524017 150.977951 469.64386 160.362335 C 470.613068 236.260757 470.97467 312.171661 470.780396 388.076874 C 470.732727 406.694183 464.017822 423.650238 452.126282 438.575958 C 438.254639 455.987 420.212982 465.693237 398.828491 469.899109 C 394.508514 470.748749 390.003815 470.953857 385.583923 470.956909 C 299.929688 471.0159 214.274902 471.163147 128.621597 470.878571 C 108.887062 470.812988 91.020073 464.548706 75.25473 451.965668 C 57.843163 438.068756 48.22765 420.007446 44.100216 398.62561 C 43.205826 393.99231 43.047295 389.160797 43.043118 384.420197 C 42.979942 312.763977 42.712887 241.105804 43.173676 169.452499 C 43.311802 147.973495 51.144135 128.930862 66.294357 113.088982 C 77.486519 101.385849 90.496544 93.055458 106.898804 89.24408 C 107.65213 101.810982 107.668114 114.124352 107.774063 126.436943 C 107.79686 129.086121 107.778748 131.822861 108.406502 134.364395 C 110.987259 144.812851 120.798851 151.264999 131.883591 150.055756 C 141.809097 148.972961 149.87648 140.487366 150.117401 130.133606 C 150.419327 117.15889 150.201309 104.172554 150.285172 91.191727 C 150.296555 89.432167 150.757339 87.675514 151.01004 85.917511 C 178.692535 85.942337 206.375031 85.967155 234.797485 86.279022 C 235.607803 99.869797 235.648071 113.173828 235.773972 126.477043 C 235.799026 129.124939 235.784531 131.861206 236.417313 134.399933 C 239.020584 144.844528 248.83168 151.275909 259.90976 150.05336 C 269.828369 148.958771 277.879303 140.471588 278.118652 130.117844 C 278.418488 117.147652 278.201569 104.165977 278.285217 91.189766 C 278.296539 89.430862 278.757355 87.674858 279.010071 85.917511 C 306.692535 85.942337 334.374969 85.967163 362.797424 86.279015 C 363.608704 100.375504 363.624756 114.185532 363.767212 127.994255 C 363.901947 141.053894 372.683929 150.193771 384.957031 150.213577 C 397.235474 150.233383 406.094269 141.103851 406.224731 128.071198 C 406.339661 116.587181 406.222015 105.100952 406.28598 93.616142 C 406.294739 92.041626 406.759186 90.46965 407.012634 88.896492 M 254.210098 294.699402 C 249.809418 298.956573 245.408737 303.213745 240.928314 307.548035 C 239.676407 306.447174 238.77681 305.725616 237.955795 304.923584 C 227.465927 294.676147 217.131531 284.26413 206.459595 274.210297 C 198.108307 266.342712 185.104935 266.763275 177.048737 274.678009 C 168.989868 282.595367 168.282928 295.886597 176.294662 304.008453 C 192.676682 320.615601 209.291809 337.003265 226.160904 353.11496 C 234.657227 361.229828 248.469971 361.038208 256.647766 353.040649 C 290.722107 319.717285 324.773468 286.367676 358.462769 252.65744 C 361.896881 249.221222 363.973877 243.467377 364.699554 238.499619 C 365.947693 229.954895 360.207092 221.714584 352.231537 218.167267 C 344.035553 214.521912 335.296082 216.125961 328.306305 222.882019 C 303.743622 246.623398 279.248505 270.434662 254.210098 294.699402 z" stroke-linecap="round"/>
</g>
<g transform="matrix(2.3258 0 0 2.3258 202.6573 126.7712)" id="Layer_1">
<path style="stroke: none; stroke-width: 1; stroke-dasharray: none; stroke-linecap: butt; stroke-dashoffset: 0; stroke-linejoin: miter; stroke-miterlimit: 4; is-custom-font: none; font-file-url: none; fill: rgb(25,21,22); fill-rule: nonzero; opacity: 1;" transform=" translate(-129.0946, -96.5788)" d="M 151.006744 85.454109 C 150.757339 87.675514 150.296555 89.432167 150.285172 91.191727 C 150.201309 104.172554 150.419327 117.15889 150.117401 130.133606 C 149.87648 140.487366 141.809097 148.972961 131.883591 150.055756 C 120.798851 151.264999 110.987259 144.812851 108.406502 134.364395 C 107.778748 131.822861 107.79686 129.086121 107.774063 126.436943 C 107.668114 114.124352 107.65213 101.810982 107.296295 89.19838 C 107.259109 79.281403 106.659531 69.537743 108.031532 60.080086 C 109.569382 49.479122 120.286217 42.152538 130.541534 43.027645 C 141.730148 43.982388 150.653488 53.262569 150.960236 64.521614 C 151.146011 71.339973 151.000259 78.167374 151.006744 85.454109 z" stroke-linecap="round"/>
</g>
<g transform="matrix(2.3258 0 0 2.3258 798.0781 126.7872)" id="Layer_1">
<path style="stroke: none; stroke-width: 1; stroke-dasharray: none; stroke-linecap: butt; stroke-dashoffset: 0; stroke-linejoin: miter; stroke-miterlimit: 4; is-custom-font: none; font-file-url: none; fill: rgb(25,21,22); fill-rule: nonzero; opacity: 1;" transform=" translate(-385.0974, -96.5856)" d="M 407.008667 88.434418 C 406.759186 90.46965 406.294739 92.041626 406.28598 93.616142 C 406.222015 105.100952 406.339661 116.587181 406.224731 128.071198 C 406.094269 141.103851 397.235474 150.233383 384.957031 150.213577 C 372.683929 150.193771 363.901947 141.053894 363.767212 127.994255 C 363.624756 114.185532 363.608704 100.375504 363.264221 86.241852 C 363.259583 77.298576 362.68454 68.547234 364.009888 60.093845 C 365.672302 49.490505 376.266174 42.161285 386.527344 43.026936 C 397.676941 43.967529 406.669342 53.286583 406.956024 64.507599 C 407.155731 72.324493 407.001068 80.150436 407.008667 88.434418 z" stroke-linecap="round"/>
</g>
<g transform="matrix(2.3258 0 0 2.3258 500.3677 126.7728)" id="Layer_1">
<path style="stroke: none; stroke-width: 1; stroke-dasharray: none; stroke-linecap: butt; stroke-dashoffset: 0; stroke-linejoin: miter; stroke-miterlimit: 4; is-custom-font: none; font-file-url: none; fill: rgb(25,21,22); fill-rule: nonzero; opacity: 1;" transform=" translate(-257.0959, -96.5795)" d="M 279.006775 85.454109 C 278.757355 87.674858 278.296539 89.430862 278.285217 91.189766 C 278.201569 104.165977 278.418488 117.147652 278.118652 130.117844 C 277.879303 140.471588 269.828369 148.958771 259.90976 150.05336 C 248.83168 151.275909 239.020584 144.844528 236.417313 134.399933 C 235.784531 131.861206 235.799026 129.124939 235.773972 126.477043 C 235.648071 113.173828 235.607803 99.869797 235.264282 86.241859 C 235.259888 77.297508 234.685333 68.545151 236.010651 60.090618 C 237.672592 49.48877 248.275223 42.156639 258.534607 43.02729 C 269.716003 43.976185 278.652863 53.266037 278.960205 64.518936 C 279.146454 71.338165 279.000305 78.166473 279.006775 85.454109 z" stroke-linecap="round"/>
</g>
<g transform="matrix(2.3258 0 0 2.3258 525.148 571.27)" id="Layer_1">
<path style="stroke: none; stroke-width: 1; stroke-dasharray: none; stroke-linecap: butt; stroke-dashoffset: 0; stroke-linejoin: miter; stroke-miterlimit: 4; is-custom-font: none; font-file-url: none; fill: rgb(1,178,150); fill-rule: nonzero; opacity: 1;" transform=" translate(-267.7515, -287.6925)" d="M 254.468933 294.459412 C 279.248505 270.434662 303.743622 246.623398 328.306305 222.882019 C 335.296082 216.125961 344.035553 214.521912 352.231537 218.167267 C 360.207092 221.714584 365.947693 229.954895 364.699554 238.499619 C 363.973877 243.467377 361.896881 249.221222 358.462769 252.65744 C 324.773468 286.367676 290.722107 319.717285 256.647766 353.040649 C 248.469971 361.038208 234.657227 361.229828 226.160904 353.11496 C 209.291809 337.003265 192.676682 320.615601 176.294662 304.008453 C 168.282928 295.886597 168.989868 282.595367 177.048737 274.678009 C 185.104935 266.763275 198.108307 266.342712 206.459595 274.210297 C 217.131531 284.26413 227.465927 294.676147 237.955795 304.923584 C 238.77681 305.725616 239.676407 306.447174 240.928314 307.548035 C 245.408737 303.213745 249.809418 298.956573 254.468933 294.459412 z" stroke-linecap="round"/>
</g>
</svg>