<svg xmlns="http://www.w3.org/2000/svg" version="1.1" xmlns:xlink="http://www.w3.org/1999/xlink" xmlns:svgjs="http://svgjs.com/svgjs" width="1440" height="1000" preserveAspectRatio="none" viewBox="0 0 1440 1000"><g mask="url(&quot;#SvgjsMask1265&quot;)" fill="none"><rect width="1440" height="1000" x="0" y="0" fill="rgba(201, 218, 234, 1)"></rect><path d="M132 415L131 -22" stroke-width="6" stroke="url(#SvgjsLinearGradient1266)" stroke-linecap="round" class="Up"></path><path d="M705 408L704 -96" stroke-width="8" stroke="url(#SvgjsLinearGradient1267)" stroke-linecap="round" class="Down"></path><path d="M648 712L647 1434" stroke-width="6" stroke="url(#SvgjsLinearGradient1266)" stroke-linecap="round" class="Up"></path><path d="M58 954L57 387" stroke-width="8" stroke="url(#SvgjsLinearGradient1267)" stroke-linecap="round" class="Down"></path><path d="M1197 26L1196 514" stroke-width="10" stroke="url(#SvgjsLinearGradient1266)" stroke-linecap="round" class="Up"></path><path d="M1003 310L1002 791" stroke-width="6" stroke="url(#SvgjsLinearGradient1267)" stroke-linecap="round" class="Down"></path><path d="M1082 874L1081 363" stroke-width="6" stroke="url(#SvgjsLinearGradient1266)" stroke-linecap="round" class="Up"></path><path d="M1045 281L1044 -94" stroke-width="6" stroke="url(#SvgjsLinearGradient1266)" stroke-linecap="round" class="Up"></path><path d="M78 215L77 -520" stroke-width="10" stroke="url(#SvgjsLinearGradient1267)" stroke-linecap="round" class="Down"></path><path d="M19 299L18 -434" stroke-width="10" stroke="url(#SvgjsLinearGradient1267)" stroke-linecap="round" class="Down"></path><path d="M703 658L702 190" stroke-width="10" stroke="url(#SvgjsLinearGradient1266)" stroke-linecap="round" class="Up"></path><path d="M41 388L40 7" stroke-width="6" stroke="url(#SvgjsLinearGradient1266)" stroke-linecap="round" class="Up"></path><path d="M181 563L180 120" stroke-width="6" stroke="url(#SvgjsLinearGradient1267)" stroke-linecap="round" class="Down"></path><path d="M302 102L301 -591" stroke-width="8" stroke="url(#SvgjsLinearGradient1266)" stroke-linecap="round" class="Up"></path><path d="M950 401L949 48" stroke-width="6" stroke="url(#SvgjsLinearGradient1267)" stroke-linecap="round" class="Down"></path><path d="M110 3L109 280" stroke-width="6" stroke="url(#SvgjsLinearGradient1267)" stroke-linecap="round" class="Down"></path><path d="M272 573L271 1101" stroke-width="6" stroke="url(#SvgjsLinearGradient1266)" stroke-linecap="round" class="Up"></path><path d="M1411 143L1410 592" stroke-width="6" stroke="url(#SvgjsLinearGradient1267)" stroke-linecap="round" class="Down"></path><path d="M1109 447L1108 1195" stroke-width="10" stroke="url(#SvgjsLinearGradient1266)" stroke-linecap="round" class="Up"></path><path d="M886 305L885 937" stroke-width="10" stroke="url(#SvgjsLinearGradient1266)" stroke-linecap="round" class="Up"></path><path d="M67 767L66 1432" stroke-width="6" stroke="url(#SvgjsLinearGradient1267)" stroke-linecap="round" class="Down"></path><path d="M181 91L180 -349" stroke-width="8" stroke="url(#SvgjsLinearGradient1267)" stroke-linecap="round" class="Down"></path><path d="M357 425L356 -5" stroke-width="6" stroke="url(#SvgjsLinearGradient1267)" stroke-linecap="round" class="Down"></path><path d="M1335 982L1334 1247" stroke-width="8" stroke="url(#SvgjsLinearGradient1266)" stroke-linecap="round" class="Up"></path><path d="M233 308L232 -128" stroke-width="6" stroke="url(#SvgjsLinearGradient1266)" stroke-linecap="round" class="Up"></path><path d="M525 581L524 -106" stroke-width="6" stroke="url(#SvgjsLinearGradient1266)" stroke-linecap="round" class="Up"></path><path d="M215 410L214 -264" stroke-width="10" stroke="url(#SvgjsLinearGradient1266)" stroke-linecap="round" class="Up"></path><path d="M1395 361L1394 826" stroke-width="10" stroke="url(#SvgjsLinearGradient1267)" stroke-linecap="round" class="Down"></path><path d="M863 324L862 685" stroke-width="8" stroke="url(#SvgjsLinearGradient1266)" stroke-linecap="round" class="Up"></path><path d="M166 20L165 635" stroke-width="10" stroke="url(#SvgjsLinearGradient1266)" stroke-linecap="round" class="Up"></path><path d="M942 143L941 -214" stroke-width="6" stroke="url(#SvgjsLinearGradient1267)" stroke-linecap="round" class="Down"></path><path d="M669 391L668 -166" stroke-width="10" stroke="url(#SvgjsLinearGradient1266)" stroke-linecap="round" class="Up"></path><path d="M422 607L421 -62" stroke-width="8" stroke="url(#SvgjsLinearGradient1267)" stroke-linecap="round" class="Down"></path><path d="M1318 246L1317 704" stroke-width="10" stroke="url(#SvgjsLinearGradient1266)" stroke-linecap="round" class="Up"></path><path d="M187 712L186 22" stroke-width="8" stroke="url(#SvgjsLinearGradient1267)" stroke-linecap="round" class="Down"></path><path d="M664 236L663 505" stroke-width="8" stroke="url(#SvgjsLinearGradient1267)" stroke-linecap="round" class="Down"></path></g><defs><mask id="SvgjsMask1265"><rect width="1440" height="1000" fill="#ffffff"></rect></mask><linearGradient x1="0%" y1="100%" x2="0%" y2="0%" id="SvgjsLinearGradient1266"><stop stop-color="rgba(101, 198, 192, 0)" offset="0"></stop><stop stop-color="rgba(101, 198, 192, 1)" offset="1"></stop></linearGradient><linearGradient x1="0%" y1="0%" x2="0%" y2="100%" id="SvgjsLinearGradient1267"><stop stop-color="rgba(101, 198, 192, 0)" offset="0"></stop><stop stop-color="rgba(101, 198, 192, 1)" offset="1"></stop></linearGradient></defs></svg>