<svg xmlns="http://www.w3.org/2000/svg" version="1.1" xmlns:xlink="http://www.w3.org/1999/xlink" xmlns:svgjs="http://svgjs.com/svgjs" width="1440" height="1000" preserveAspectRatio="none" viewBox="0 0 1440 1000"><g mask="url(&quot;#SvgjsMask1022&quot;)" fill="none"><rect width="1440" height="1000" x="0" y="0" fill="rgba(46, 53, 50, 1)"></rect><path d="M48 400L47 -188" stroke-width="6" stroke="url(#SvgjsLinearGradient1023)" stroke-linecap="round" class="Up"></path><path d="M1146 851L1145 154" stroke-width="8" stroke="url(#SvgjsLinearGradient1023)" stroke-linecap="round" class="Up"></path><path d="M401 124L400 -129" stroke-width="10" stroke="url(#SvgjsLinearGradient1023)" stroke-linecap="round" class="Up"></path><path d="M187 775L186 1486" stroke-width="8" stroke="url(#SvgjsLinearGradient1024)" stroke-linecap="round" class="Down"></path><path d="M258 661L257 1035" stroke-width="6" stroke="url(#SvgjsLinearGradient1024)" stroke-linecap="round" class="Down"></path><path d="M461 738L460 436" stroke-width="10" stroke="url(#SvgjsLinearGradient1024)" stroke-linecap="round" class="Down"></path><path d="M1264 717L1263 1187" stroke-width="10" stroke="url(#SvgjsLinearGradient1024)" stroke-linecap="round" class="Down"></path><path d="M603 88L602 -661" stroke-width="10" stroke="url(#SvgjsLinearGradient1023)" stroke-linecap="round" class="Up"></path><path d="M812 483L811 109" stroke-width="10" stroke="url(#SvgjsLinearGradient1023)" stroke-linecap="round" class="Up"></path><path d="M967 997L966 289" stroke-width="10" stroke="url(#SvgjsLinearGradient1023)" stroke-linecap="round" class="Up"></path><path d="M456 326L455 25" stroke-width="10" stroke="url(#SvgjsLinearGradient1024)" stroke-linecap="round" class="Down"></path><path d="M490 535L489 -212" stroke-width="6" stroke="url(#SvgjsLinearGradient1023)" stroke-linecap="round" class="Up"></path><path d="M935 144L934 -235" stroke-width="6" stroke="url(#SvgjsLinearGradient1023)" stroke-linecap="round" class="Up"></path><path d="M867 204L866 -232" stroke-width="6" stroke="url(#SvgjsLinearGradient1024)" stroke-linecap="round" class="Down"></path><path d="M721 700L720 975" stroke-width="6" stroke="url(#SvgjsLinearGradient1023)" stroke-linecap="round" class="Up"></path><path d="M748 538L747 78" stroke-width="6" stroke="url(#SvgjsLinearGradient1023)" stroke-linecap="round" class="Up"></path><path d="M678 578L677 283" stroke-width="6" stroke="url(#SvgjsLinearGradient1023)" stroke-linecap="round" class="Up"></path><path d="M346 361L345 34" stroke-width="10" stroke="url(#SvgjsLinearGradient1024)" stroke-linecap="round" class="Down"></path><path d="M603 298L602 722" stroke-width="8" stroke="url(#SvgjsLinearGradient1024)" stroke-linecap="round" class="Down"></path><path d="M38 562L37 124" stroke-width="8" stroke="url(#SvgjsLinearGradient1024)" stroke-linecap="round" class="Down"></path><path d="M632 71L631 715" stroke-width="8" stroke="url(#SvgjsLinearGradient1024)" stroke-linecap="round" class="Down"></path><path d="M1032 490L1031 130" stroke-width="6" stroke="url(#SvgjsLinearGradient1023)" stroke-linecap="round" class="Up"></path><path d="M1322 925L1321 1383" stroke-width="6" stroke="url(#SvgjsLinearGradient1023)" stroke-linecap="round" class="Up"></path><path d="M445 27L444 457" stroke-width="6" stroke="url(#SvgjsLinearGradient1023)" stroke-linecap="round" class="Up"></path><path d="M894 578L893 32" stroke-width="6" stroke="url(#SvgjsLinearGradient1024)" stroke-linecap="round" class="Down"></path><path d="M1127 881L1126 335" stroke-width="8" stroke="url(#SvgjsLinearGradient1024)" stroke-linecap="round" class="Down"></path><path d="M128 504L127 938" stroke-width="8" stroke="url(#SvgjsLinearGradient1023)" stroke-linecap="round" class="Up"></path><path d="M845 125L844 408" stroke-width="8" stroke="url(#SvgjsLinearGradient1024)" stroke-linecap="round" class="Down"></path><path d="M822 567L821 862" stroke-width="10" stroke="url(#SvgjsLinearGradient1024)" stroke-linecap="round" class="Down"></path><path d="M1413 135L1412 -329" stroke-width="10" stroke="url(#SvgjsLinearGradient1023)" stroke-linecap="round" class="Up"></path><path d="M1263 614L1262 188" stroke-width="8" stroke="url(#SvgjsLinearGradient1023)" stroke-linecap="round" class="Up"></path><path d="M764 733L763 1356" stroke-width="8" stroke="url(#SvgjsLinearGradient1023)" stroke-linecap="round" class="Up"></path><path d="M388 731L387 337" stroke-width="6" stroke="url(#SvgjsLinearGradient1023)" stroke-linecap="round" class="Up"></path><path d="M1394 79L1393 341" stroke-width="8" stroke="url(#SvgjsLinearGradient1023)" stroke-linecap="round" class="Up"></path><path d="M1271 436L1270 55" stroke-width="8" stroke="url(#SvgjsLinearGradient1024)" stroke-linecap="round" class="Down"></path><path d="M766 732L765 149" stroke-width="10" stroke="url(#SvgjsLinearGradient1024)" stroke-linecap="round" class="Down"></path></g><defs><mask id="SvgjsMask1022"><rect width="1440" height="1000" fill="#ffffff"></rect></mask><linearGradient x1="0%" y1="100%" x2="0%" y2="0%" id="SvgjsLinearGradient1023"><stop stop-color="rgba(0, 178, 149, 0)" offset="0"></stop><stop stop-color="rgba(0, 178, 149, 1)" offset="1"></stop></linearGradient><linearGradient x1="0%" y1="0%" x2="0%" y2="100%" id="SvgjsLinearGradient1024"><stop stop-color="rgba(0, 178, 149, 0)" offset="0"></stop><stop stop-color="rgba(0, 178, 149, 1)" offset="1"></stop></linearGradient></defs></svg>