<svg width="100%" height="100%" id="svg" viewBox="0 0 1440 500" xmlns="http://www.w3.org/2000/svg" class="transition duration-300 ease-in-out delay-150"><path d="M 0,500 C 0,500 0,166 0,166 C 88.96428571428572,160.96428571428572 177.92857142857144,155.92857142857142 312,143 C 446.07142857142856,130.07142857142858 625.25,109.24999999999999 759,118 C 892.75,126.75000000000001 981.0714285714287,165.07142857142858 1087,178 C 1192.9285714285713,190.92857142857142 1316.4642857142858,178.46428571428572 1440,166 C 1440,166 1440,500 1440,500 Z" stroke="none" stroke-width="0" fill="#00b29588" class="transition-all duration-300 ease-in-out delay-150 path-0"></path><path d="M 0,500 C 0,500 0,333 0,333 C 149.28571428571428,334.92857142857144 298.57142857142856,336.85714285714283 427,336 C 555.4285714285714,335.14285714285717 663.0000000000001,331.5 754,345 C 844.9999999999999,358.5 919.4285714285716,389.14285714285717 1031,390 C 1142.5714285714284,390.85714285714283 1291.2857142857142,361.92857142857144 1440,333 C 1440,333 1440,500 1440,500 Z" stroke="none" stroke-width="0" fill="#00b295ff" class="transition-all duration-300 ease-in-out delay-150 path-1"></path></svg>